<svg width="25" height="25" viewBox="0 0 25 25" fill="none" xmlns="http://www.w3.org/2000/svg">
<path d="M9.57031 21.377H15.5703" stroke="#939CB2" stroke-width="2" stroke-linecap="round" stroke-linejoin="round"/>
<path d="M5.83935 10.1269C5.83811 9.2374 6.01293 8.35646 6.35374 7.53485C6.69455 6.71324 7.19461 5.9672 7.82509 5.33975C8.45556 4.7123 9.204 4.21584 10.0272 3.87899C10.8505 3.54214 11.7323 3.37156 12.6217 3.37708C16.3333 3.40468 19.302 6.48971 19.302 10.2116V10.8769C19.302 14.2346 20.0045 16.183 20.6232 17.248C20.6899 17.3618 20.7254 17.4911 20.7261 17.623C20.7268 17.7549 20.6927 17.8846 20.6273 17.9991C20.5618 18.1136 20.4674 18.2088 20.3534 18.2751C20.2394 18.3415 20.11 18.3766 19.9781 18.3769H5.16253C5.03065 18.3766 4.90118 18.3414 4.7872 18.2751C4.67322 18.2087 4.57875 18.1135 4.51332 17.999C4.4479 17.8845 4.41383 17.7547 4.41456 17.6228C4.41529 17.491 4.45079 17.3616 4.51747 17.2478C5.13653 16.1828 5.83935 14.2344 5.83935 10.8769L5.83935 10.1269Z" stroke="#939CB2" stroke-width="2" stroke-linecap="round" stroke-linejoin="round"/>
</svg>
