<svg width="57" height="57" viewBox="0 0 57 57" fill="none" xmlns="http://www.w3.org/2000/svg">
<g filter="url(#filter0_d_5769_48291)">
<rect x="6" y="2.62695" width="45" height="45" rx="12" fill="url(#paint0_linear_5769_48291)"/>
<rect x="6" y="2.62695" width="45" height="45" rx="12" fill="black" fill-opacity="0.2"/>
</g>
<path d="M35.25 34.127H21.7493C21.5504 34.127 21.3596 34.0479 21.2189 33.9073C21.0783 33.7666 20.9993 33.5759 20.9993 33.377V16.877C20.9993 16.678 21.0783 16.4873 21.2189 16.3466C21.3596 16.206 21.5504 16.127 21.7493 16.127H30.75L36 21.377V33.377C36 33.4754 35.9806 33.573 35.9429 33.664C35.9052 33.755 35.85 33.8376 35.7803 33.9073C35.7107 33.9769 35.628 34.0322 35.537 34.0699C35.446 34.1076 35.3485 34.127 35.25 34.127Z" stroke="white" stroke-width="2" stroke-linecap="round" stroke-linejoin="round"/>
<path d="M30.75 16.127V21.377H36.0007" stroke="white" stroke-width="2" stroke-linecap="round" stroke-linejoin="round"/>
<path d="M25.5 25.877H31.5" stroke="white" stroke-width="2" stroke-linecap="round" stroke-linejoin="round"/>
<path d="M25.5 28.877H31.5" stroke="white" stroke-width="2" stroke-linecap="round" stroke-linejoin="round"/>
<defs>
<filter id="filter0_d_5769_48291" x="0.5" y="0.626953" width="56" height="56" filterUnits="userSpaceOnUse" color-interpolation-filters="sRGB">
<feFlood flood-opacity="0" result="BackgroundImageFix"/>
<feColorMatrix in="SourceAlpha" type="matrix" values="0 0 0 0 0 0 0 0 0 0 0 0 0 0 0 0 0 0 127 0" result="hardAlpha"/>
<feOffset dy="3.5"/>
<feGaussianBlur stdDeviation="2.75"/>
<feColorMatrix type="matrix" values="0 0 0 0 0 0 0 0 0 0 0 0 0 0 0 0 0 0 0.02 0"/>
<feBlend mode="normal" in2="BackgroundImageFix" result="effect1_dropShadow_5769_48291"/>
<feBlend mode="normal" in="SourceGraphic" in2="effect1_dropShadow_5769_48291" result="shape"/>
</filter>
<linearGradient id="paint0_linear_5769_48291" x1="6" y1="26.1567" x2="50.994" y2="25.6233" gradientUnits="userSpaceOnUse">
<stop stop-color="#0090C7"/>
<stop offset="1" stop-color="#00A39C"/>
</linearGradient>
</defs>
</svg>
