<svg width="144" height="185" viewBox="0 0 144 185" fill="none" xmlns="http://www.w3.org/2000/svg">
<circle cx="72" cy="71.5137" r="71.5" fill="#F1F1F1"/>
<rect x="43.9505" y="70.0563" width="70" height="98" rx="7" transform="rotate(2.5 43.9505 70.0563)" fill="#EEEEEE" stroke="#999999" stroke-width="2"/>
<rect x="2.33579" y="64.1947" width="74" height="102" rx="9" transform="rotate(-7.5 2.33579 64.1947)" fill="#FAFAFA" stroke="#999999" stroke-width="2"/>
<path d="M4.50222 72.9872C3.92552 68.6067 7.00909 64.5882 11.3896 64.0115L66.9105 56.702C71.291 56.1253 75.3095 59.2089 75.8862 63.5893L77.8441 78.461L6.46011 87.8589L4.50222 72.9872Z" fill="#EEEEEE"/>
<rect x="90.3662" y="58.6562" width="3" height="10" rx="1.5" transform="rotate(82.5 90.3662 58.6562)" fill="#999999"/>
<rect x="62.9695" y="42.0908" width="3" height="10" rx="1.5" transform="rotate(-7.5 62.9695 42.0908)" fill="#999999"/>
<rect x="80.5471" y="44.8203" width="3" height="10" rx="1.5" transform="rotate(37.5 80.5471 44.8203)" fill="#999999"/>
<rect x="13.9221" y="90.9102" width="58" height="4" rx="2" transform="rotate(-7.5 13.9221 90.9102)" fill="#DCDCDC"/>
<rect x="16.5327" y="110.739" width="58" height="4" rx="2" transform="rotate(-7.5 16.5327 110.739)" fill="#DCDCDC"/>
<rect x="19.1433" y="130.568" width="58" height="4" rx="2" transform="rotate(-7.5 19.1433 130.568)" fill="#DCDCDC"/>
<rect x="14.9663" y="98.8418" width="21" height="4" rx="2" transform="rotate(-7.5 14.9663 98.8418)" fill="#EEEEEE"/>
<rect x="17.5769" y="118.671" width="21" height="4" rx="2" transform="rotate(-7.5 17.5769 118.671)" fill="#EEEEEE"/>
<rect x="20.1875" y="138.5" width="21" height="4" rx="2" transform="rotate(-7.5 20.1875 138.5)" fill="#EEEEEE"/>
</svg>
