<svg width="22" height="21" viewBox="0 0 22 21" fill="none" xmlns="http://www.w3.org/2000/svg">
<path d="M16.8268 0.0654297H4.93229C2.37761 0.0654297 0.306641 2.04397 0.306641 4.48462V15.8483C0.306641 18.2889 2.37761 20.2675 4.93229 20.2675H16.8268C19.3815 20.2675 21.4525 18.2889 21.4525 15.8483V4.48462C21.4525 2.04397 19.3815 0.0654297 16.8268 0.0654297ZM20.1309 15.8483C20.1309 17.5916 18.6516 19.0048 16.8268 19.0048H4.93229C3.10751 19.0048 1.62826 17.5916 1.62826 15.8483V4.48462C1.62826 2.74129 3.10751 1.32806 4.93229 1.32806H16.8268C18.6516 1.32806 20.1309 2.74129 20.1309 4.48462V15.8483Z" fill="white"/>
<path d="M6.91479 4.48438H5.59318C5.22821 4.48438 4.93237 4.76701 4.93237 5.11569V6.37831C4.93237 6.727 5.22821 7.00963 5.59318 7.00963H6.91479C7.27977 7.00963 7.5756 6.727 7.5756 6.37831V5.11569C7.5756 4.76701 7.27977 4.48438 6.91479 4.48438Z" fill="white"/>
<path d="M6.91479 8.9043H5.59318C5.22821 8.9043 4.93237 9.18693 4.93237 9.53561V10.7982C4.93237 11.1469 5.22821 11.4296 5.59318 11.4296H6.91479C7.27977 11.4296 7.5756 11.1469 7.5756 10.7982V9.53561C7.5756 9.18693 7.27977 8.9043 6.91479 8.9043Z" fill="white"/>
<path d="M6.91479 13.3232H5.59318C5.22821 13.3232 4.93237 13.6059 4.93237 13.9546V15.2172C4.93237 15.5659 5.22821 15.8485 5.59318 15.8485H6.91479C7.27977 15.8485 7.5756 15.5659 7.5756 15.2172V13.9546C7.5756 13.6059 7.27977 13.3232 6.91479 13.3232Z" fill="white"/>
<path d="M16.8269 5.11621H8.89722V6.37884H16.8269V5.11621Z" fill="white"/>
<path d="M16.8269 9.53516H8.89722V10.7978H16.8269V9.53516Z" fill="white"/>
<path d="M16.8269 13.9541H8.89722V15.2167H16.8269V13.9541Z" fill="white"/>
</svg>
